<svg xmlns="http://www.w3.org/2000/svg" viewBox="0 0 1600 1000" preserveAspectRatio="xMidYMid slice"><defs><linearGradient id="sky" x1="0" y1="0" x2="0" y2="1"><stop offset="0" stop-color="#b9d9d0"/><stop offset="0.58" stop-color="#e7d7ad"/><stop offset="0.59" stop-color="#8baa68"/><stop offset="1" stop-color="#3f6545"/></linearGradient><linearGradient id="field" x1="0" y1="0" x2="1" y2="1"><stop stop-color="#9bbb6f"/><stop offset="1" stop-color="#52734b"/></linearGradient></defs><rect width="1600" height="1000" fill="url(#sky)"/><circle cx="1280" cy="190" r="95" fill="#f7e3a7" opacity=".8"/><path d="M0 610 Q330 450 680 590 T1600 520 V1000 H0Z" fill="#668b59"/><path d="M0 730 Q350 570 760 700 T1600 650 V1000 H0Z" fill="url(#field)"/><g fill="none" stroke="#d8df9a" stroke-width="8" opacity=".7"><path d="M80 1000 Q400 760 720 690 T1300 600"/><path d="M330 1000 Q580 790 850 700 T1450 610"/><path d="M650 1000 Q810 820 1020 720 T1600 650"/></g><g fill="#3f6545" opacity=".85"><path d="M170 610 l18-115 18 115z"/><path d="M220 610 l22-145 22 145z"/><path d="M1430 610 l18-130 18 130z"/><path d="M1490 610 l22-160 22 160z"/></g></svg>
